<svg xmlns="http://www.w3.org/2000/svg" width="69.689" height="69.734" viewBox="0 0 69.689 69.734">
  <g id="Сгруппировать_24" data-name="Сгруппировать 24" transform="translate(3299.434 155.057)">
    <rect id="Прямоугольник_8" data-name="Прямоугольник 8" width="14.425" height="5.443" transform="translate(-3269.496 -122.124)" fill="#38afe7"/>
    <rect id="Прямоугольник_9" data-name="Прямоугольник 9" width="14.425" height="5.443" transform="translate(-3269.495 -138.454)" fill="#38afe7"/>
    <path id="Контур_9" data-name="Контур 9" d="M-3274.8-127.735l-6.661,7.555-3.314-3.113-3.726,3.968,7.409,6.958,10.376-11.769Z" fill="#38afe7"/>
    <path id="Контур_10" data-name="Контур 10" d="M-3284.779-106.962l-3.726,3.968,7.409,6.958,10.376-11.769-4.083-3.6-6.661,7.555Z" fill="#38afe7"/>
    <path id="Контур_11" data-name="Контур 11" d="M-3274.8-144.2l-6.661,7.555-3.314-3.113-3.726,3.968,7.409,6.958,10.376-11.769Z" fill="#38afe7"/>
    <path id="Контур_12" data-name="Контур 12" d="M-3241.336-120.963l-18.287,18.8a9.629,9.629,0,0,0-2.309,3.751l-.041.125-2.947,12.96,12.994-2.909.129-.043a9.641,9.641,0,0,0,3.768-2.322l18.284-18.8Zm-10.553,26.528a4.146,4.146,0,0,1-.321.286L-3256.054-98a4.152,4.152,0,0,1,.294-.328l14.482-14.891,3.884,3.875Z" fill="#0078b1"/>
    <path id="Контур_13" data-name="Контур 13" d="M-3293.99-93.547v-53.345a2.724,2.724,0,0,1,2.721-2.721h38.905a2.725,2.725,0,0,1,2.722,2.721v26.662l5.443-5.6v-21.065a8.175,8.175,0,0,0-8.165-8.165h-38.905a8.175,8.175,0,0,0-8.165,8.165v53.345a8.175,8.175,0,0,0,8.165,8.165h20.779l1.238-5.443h-22.017A2.724,2.724,0,0,1-3293.99-93.547Z" fill="#38afe7"/>
  </g>
</svg>
