<svg xmlns="http://www.w3.org/2000/svg" xmlns:xlink="http://www.w3.org/1999/xlink" width="66.025" height="51.582" viewBox="0 0 66.025 51.582">
  <defs>
    <linearGradient id="linear-gradient" y1="0.5" x2="1" y2="0.5" gradientUnits="objectBoundingBox">
      <stop offset="0" stop-color="#00b0ed"/>
      <stop offset="0.386" stop-color="#00ace9"/>
      <stop offset="0.713" stop-color="#00a2df"/>
      <stop offset="1" stop-color="#0092d0"/>
    </linearGradient>
    <linearGradient id="linear-gradient-5" x1="0" y1="0.5" x2="1" y2="0.5" xlink:href="#linear-gradient"/>
  </defs>
  <g id="Сгруппировать_61" data-name="Сгруппировать 61" transform="translate(3251.194 -1467.418)">
    <g id="Сгруппировать_60" data-name="Сгруппировать 60">
      <path id="Контур_46" data-name="Контур 46" d="M-3194.454,1489.345v-18.058a3.873,3.873,0,0,0-3.869-3.869h-49a3.874,3.874,0,0,0-3.869,3.869v30.949a3.874,3.874,0,0,0,3.869,3.869h31.423a15.5,15.5,0,0,0,15.259,12.9,15.492,15.492,0,0,0,15.474-15.474,15.5,15.5,0,0,0-9.285-14.181ZM-3247.325,1470h49a1.292,1.292,0,0,1,1.29,1.29v3.869h-19.988a1.289,1.289,0,0,0-1.29,1.289,1.29,1.29,0,0,0,1.29,1.29h19.988v3.868h-51.582v-3.868h19.988a1.29,1.29,0,0,0,1.289-1.29,1.289,1.289,0,0,0-1.289-1.289h-19.988v-3.869A1.292,1.292,0,0,1-3247.325,1470Zm-1.29,32.239v-18.053h51.582v4.3a15.458,15.458,0,0,0-3.61-.427,15.492,15.492,0,0,0-15.475,15.475h-31.207a1.293,1.293,0,0,1-1.29-1.29Zm47.972,14.185a12.91,12.91,0,0,1-12.9-12.9,12.911,12.911,0,0,1,12.9-12.9,12.91,12.91,0,0,1,12.9,12.9A12.91,12.91,0,0,1-3200.643,1516.421Z" fill="url(#linear-gradient)"/>
      <path id="Контур_47" data-name="Контур 47" d="M-3201.933,1498.368a3.873,3.873,0,0,0-3.869-3.869,3.873,3.873,0,0,0-3.868,3.869,3.872,3.872,0,0,0,3.868,3.868A3.872,3.872,0,0,0-3201.933,1498.368Zm-5.158,0a1.291,1.291,0,0,1,1.289-1.29,1.292,1.292,0,0,1,1.29,1.29,1.291,1.291,0,0,1-1.29,1.289A1.29,1.29,0,0,1-3207.091,1498.368Z" fill="url(#linear-gradient)"/>
      <path id="Контур_48" data-name="Контур 48" d="M-3195.485,1504.815a3.874,3.874,0,0,0-3.869,3.869,3.874,3.874,0,0,0,3.869,3.869,3.873,3.873,0,0,0,3.868-3.869A3.873,3.873,0,0,0-3195.485,1504.815Zm0,5.159a1.292,1.292,0,0,1-1.29-1.29,1.291,1.291,0,0,1,1.29-1.289,1.29,1.29,0,0,1,1.289,1.289A1.291,1.291,0,0,1-3195.485,1509.974Z" fill="url(#linear-gradient)"/>
      <path id="Контур_49" data-name="Контур 49" d="M-3195.532,1494.672a1.289,1.289,0,0,0-1.761.472l-8.934,15.474a1.289,1.289,0,0,0,.472,1.762,1.283,1.283,0,0,0,.643.173,1.288,1.288,0,0,0,1.118-.645l8.934-15.475a1.288,1.288,0,0,0-.472-1.761Z" fill="url(#linear-gradient)"/>
      <path id="Контур_50" data-name="Контур 50" d="M-3222.824,1477.735a1.291,1.291,0,0,0,1.29-1.29,1.29,1.29,0,0,0-1.29-1.289h0a1.289,1.289,0,0,0-1.289,1.289A1.291,1.291,0,0,0-3222.824,1477.735Z" fill="url(#linear-gradient-5)"/>
    </g>
  </g>
</svg>
