<svg xmlns="http://www.w3.org/2000/svg" xmlns:xlink="http://www.w3.org/1999/xlink" width="66.024" height="60.867" viewBox="0 0 66.024 60.867">
  <defs>
    <linearGradient id="linear-gradient" y1="0.5" x2="1" y2="0.5" gradientUnits="objectBoundingBox">
      <stop offset="0" stop-color="#00b0ed"/>
      <stop offset="0.386" stop-color="#00ace9"/>
      <stop offset="0.713" stop-color="#00a2df"/>
      <stop offset="1" stop-color="#0092d0"/>
    </linearGradient>
    <linearGradient id="linear-gradient-3" x1="0" y1="0.5" x2="1" y2="0.5" xlink:href="#linear-gradient"/>
  </defs>
  <g id="Сгруппировать_56" data-name="Сгруппировать 56" transform="translate(2210.568 -1462.776)">
    <path id="Контур_39" data-name="Контур 39" d="M-2184.5,1481.366l-.421.174a4.117,4.117,0,0,0-3.573-2.078h-6.527a4.119,4.119,0,0,0-4.114,4.114v18.565a4.119,4.119,0,0,0,4.114,4.114h6.527a4.107,4.107,0,0,0,3.2-1.534,17.933,17.933,0,0,0,7.238,1.534h13.792a4.2,4.2,0,0,0,4.2-4.195,4.172,4.172,0,0,0-.508-2,4.2,4.2,0,0,0,2.445-3.811,4.163,4.163,0,0,0-.47-1.926,4.2,4.2,0,0,0,2.615-3.886,4.2,4.2,0,0,0-2.615-3.885,4.163,4.163,0,0,0,.47-1.926,4.2,4.2,0,0,0-4.2-4.195h-6.872a1.18,1.18,0,0,1-1.178-1.178v-3.794a6.867,6.867,0,0,0-6.859-6.859,3.011,3.011,0,0,0-3.007,3.008v3.4a6.856,6.856,0,0,1-4.259,6.36Zm-3.994,22.31h-6.527a1.537,1.537,0,0,1-1.535-1.535v-18.565a1.537,1.537,0,0,1,1.535-1.535h6.527a1.537,1.537,0,0,1,1.535,1.535v18.565A1.536,1.536,0,0,1-2188.49,1503.676Zm10.832-28.67v-3.4a.428.428,0,0,1,.428-.428,4.285,4.285,0,0,1,4.28,4.28v3.793a3.761,3.761,0,0,0,3.757,3.757h6.872a1.618,1.618,0,0,1,1.616,1.616,1.618,1.618,0,0,1-1.616,1.616h-8.048a1.291,1.291,0,0,0-1.29,1.29,1.29,1.29,0,0,0,1.29,1.289h10.193a1.618,1.618,0,0,1,1.616,1.616,1.618,1.618,0,0,1-1.616,1.617h-10.193a1.29,1.29,0,0,0-1.29,1.289,1.291,1.291,0,0,0,1.29,1.29h8.048a1.618,1.618,0,0,1,1.616,1.616,1.618,1.618,0,0,1-1.616,1.616h-8.048a1.29,1.29,0,0,0-1.29,1.289,1.29,1.29,0,0,0,1.29,1.29h6.111a1.618,1.618,0,0,1,1.616,1.616,1.618,1.618,0,0,1-1.616,1.616h-13.793a15.34,15.34,0,0,1-6.329-1.376c0-.053,0-.106,0-.159v-18.035l.863-.355a9.429,9.429,0,0,0,5.855-8.745Z" fill="url(#linear-gradient)"/>
    <path id="Контур_40" data-name="Контур 40" d="M-2156.15,1462.776h-15.6a1.291,1.291,0,0,0-1.29,1.29,1.29,1.29,0,0,0,1.29,1.289h15.6a9.037,9.037,0,0,1,9.027,9.027V1504.3a9.037,9.037,0,0,1-9.027,9.027h-16.939a1.291,1.291,0,0,0-1.117.645l-3.35,5.8-3.35-5.8a1.291,1.291,0,0,0-1.117-.645h-16.939a9.037,9.037,0,0,1-9.027-9.027v-29.917a9.037,9.037,0,0,1,9.027-9.027h15.6a1.289,1.289,0,0,0,1.289-1.289,1.29,1.29,0,0,0-1.289-1.29h-15.6a11.619,11.619,0,0,0-11.606,11.606V1504.3a11.619,11.619,0,0,0,11.606,11.606h16.194l4.095,7.093a1.289,1.289,0,0,0,1.117.645,1.292,1.292,0,0,0,1.117-.645l4.094-7.093h16.2a11.619,11.619,0,0,0,11.606-11.606v-29.917A11.619,11.619,0,0,0-2156.15,1462.776Z" fill="url(#linear-gradient)"/>
    <path id="Контур_41" data-name="Контур 41" d="M-2177.556,1465.355a1.3,1.3,0,0,0,.912-.378,1.3,1.3,0,0,0,.378-.911,1.3,1.3,0,0,0-.378-.912,1.3,1.3,0,0,0-.912-.378,1.3,1.3,0,0,0-.912.378,1.3,1.3,0,0,0-.378.912,1.3,1.3,0,0,0,.378.911A1.3,1.3,0,0,0-2177.556,1465.355Z" fill="url(#linear-gradient-3)"/>
  </g>
</svg>
