<svg xmlns="http://www.w3.org/2000/svg" xmlns:xlink="http://www.w3.org/1999/xlink" width="59.061" height="66.025" viewBox="0 0 59.061 66.025">
  <defs>
    <linearGradient id="linear-gradient" y1="0.5" x2="1" y2="0.5" gradientUnits="objectBoundingBox">
      <stop offset="0" stop-color="#00b0ed"/>
      <stop offset="0.386" stop-color="#00ace9"/>
      <stop offset="0.713" stop-color="#00a2df"/>
      <stop offset="1" stop-color="#0092d0"/>
    </linearGradient>
    <linearGradient id="linear-gradient-2" x1="0" y1="0.5" x2="1" y2="0.5" xlink:href="#linear-gradient"/>
    <linearGradient id="linear-gradient-3" x1="0" y1="0.5" x2="1" y2="0.5" xlink:href="#linear-gradient"/>
    <linearGradient id="linear-gradient-4" x1="0" y1="0.5" x2="1" y2="0.5" xlink:href="#linear-gradient"/>
  </defs>
  <g id="Сгруппировать_59" data-name="Сгруппировать 59" transform="translate(2904.318 -1460.197)">
    <g id="Сгруппировать_58" data-name="Сгруппировать 58">
      <path id="Контур_42" data-name="Контур 42" d="M-2884.657,1467.934h5.549a1.29,1.29,0,0,0,1.29-1.289,1.29,1.29,0,0,0-1.29-1.29h-5.549a1.29,1.29,0,0,0-1.289,1.29,1.289,1.289,0,0,0,1.289,1.289Z" fill="url(#linear-gradient)"/>
      <path id="Контур_43" data-name="Контур 43" d="M-2881.86,1518.008h-.027a1.29,1.29,0,0,0-1.29,1.289,1.291,1.291,0,0,0,1.29,1.29h.027a1.291,1.291,0,0,0,1.29-1.29A1.29,1.29,0,0,0-2881.86,1518.008Z" fill="url(#linear-gradient-2)"/>
      <path id="Контур_44" data-name="Контур 44" d="M-2846.547,1481.517h-12.895v-14.872a6.455,6.455,0,0,0-6.448-6.448h-31.981a6.454,6.454,0,0,0-6.447,6.448v53.129a6.455,6.455,0,0,0,6.447,6.448h31.981a6.456,6.456,0,0,0,6.448-6.448V1504.9h12.895a1.29,1.29,0,0,0,1.29-1.289v-20.805A1.291,1.291,0,0,0-2846.547,1481.517Zm-28.093,20.805,7.339-7.34a8.735,8.735,0,0,0,5.122,1.653,8.736,8.736,0,0,0,5.156-1.676l7.363,7.363Zm24.98-18.225-8.156,8.156a6.179,6.179,0,0,1-8.726,0l-8.156-8.156Zm-26.8,1.88,7.26,7.261-7.26,7.26Zm21.339,7.232,7.289-7.289V1500.5Zm-6.9,26.565a3.874,3.874,0,0,1-3.869,3.869h-31.981a3.873,3.873,0,0,1-3.868-3.869v-53.129a3.873,3.873,0,0,1,3.868-3.869h31.981a3.874,3.874,0,0,1,3.869,3.869v14.872h-3.095V1471.8a1.291,1.291,0,0,0-1.29-1.29h-30.949a1.29,1.29,0,0,0-1.289,1.29v15.6a1.289,1.289,0,0,0,1.289,1.29,1.29,1.29,0,0,0,1.29-1.29v-14.314h28.37v8.425h-10.059a1.29,1.29,0,0,0-1.289,1.29v20.805a1.289,1.289,0,0,0,1.289,1.289h10.059v8.425h-28.37v-14.314a1.29,1.29,0,0,0-1.29-1.289,1.289,1.289,0,0,0-1.289,1.289v15.6a1.289,1.289,0,0,0,1.289,1.289h30.949a1.29,1.29,0,0,0,1.29-1.289V1504.9h3.095Z" fill="url(#linear-gradient-3)"/>
      <path id="Контур_45" data-name="Контур 45" d="M-2897.355,1494.5a1.3,1.3,0,0,0,.912-.378,1.3,1.3,0,0,0,.378-.912,1.3,1.3,0,0,0-.378-.911,1.3,1.3,0,0,0-.912-.378,1.3,1.3,0,0,0-.912.378,1.3,1.3,0,0,0-.377.911,1.3,1.3,0,0,0,.377.912A1.3,1.3,0,0,0-2897.355,1494.5Z" fill="url(#linear-gradient-4)"/>
    </g>
  </g>
</svg>
