<svg xmlns="http://www.w3.org/2000/svg" width="229.252" height="73" viewBox="0 0 229.252 73">
  <g id="Сгруппировать_63" data-name="Сгруппировать 63" transform="translate(3299.434 -3895.071)">
    <text id="Помощь_в_прохождении_Техосмотра" data-name="Помощь в 
прохождении
Техосмотра" transform="translate(-3220.182 3914.071)" fill="#fff" font-size="23" font-family="Lato-Heavy, Lato" font-weight="800"><tspan x="0" y="0">Помощь в </tspan><tspan x="0" y="25">прохождении</tspan><tspan x="0" y="50">Техосмотра</tspan></text>
    <g id="Сгруппировать_62" data-name="Сгруппировать 62">
      <rect id="Прямоугольник_12" data-name="Прямоугольник 12" width="14.425" height="5.443" transform="translate(-3269.496 3929.253)" fill="#fff"/>
      <rect id="Прямоугольник_13" data-name="Прямоугольник 13" width="14.425" height="5.443" transform="translate(-3269.495 3912.923)" fill="#fff"/>
      <path id="Контур_51" data-name="Контур 51" d="M-3274.8,3923.643l-6.661,7.555-3.314-3.113-3.726,3.968,7.409,6.958,10.376-11.769Z" fill="#fff"/>
      <path id="Контур_52" data-name="Контур 52" d="M-3284.779,3944.416l-3.726,3.968,7.409,6.958,10.376-11.769-4.083-3.6-6.661,7.555Z" fill="#fff"/>
      <path id="Контур_53" data-name="Контур 53" d="M-3274.8,3907.177l-6.661,7.555-3.314-3.113-3.726,3.968,7.409,6.958,10.376-11.769Z" fill="#fff"/>
      <path id="Контур_54" data-name="Контур 54" d="M-3241.336,3930.414l-18.287,18.8a9.64,9.64,0,0,0-2.309,3.752l-.041.125-2.947,12.96,12.994-2.909.129-.043a9.665,9.665,0,0,0,3.768-2.322l18.284-18.8Zm-10.553,26.528a4.151,4.151,0,0,1-.321.286l-3.844-3.847a4.153,4.153,0,0,1,.294-.328l14.482-14.891,3.884,3.875Z" fill="#fff"/>
      <path id="Контур_55" data-name="Контур 55" d="M-3293.99,3957.831v-53.345a2.724,2.724,0,0,1,2.721-2.722h38.905a2.725,2.725,0,0,1,2.722,2.722v26.661l5.443-5.6v-21.064a8.174,8.174,0,0,0-8.165-8.165h-38.905a8.174,8.174,0,0,0-8.165,8.165v53.345a8.175,8.175,0,0,0,8.165,8.165h20.779l1.238-5.444h-22.017A2.723,2.723,0,0,1-3293.99,3957.831Z" fill="#fff"/>
    </g>
  </g>
</svg>
