<svg xmlns="http://www.w3.org/2000/svg" width="19.698" height="26.197" viewBox="0 0 19.698 26.197">
  <g id="Сгруппировать_27" data-name="Сгруппировать 27" transform="translate(0.656 0.656)">
    <g id="Сгруппировать_26" data-name="Сгруппировать 26">
      <path id="Контур_14" data-name="Контур 14" d="M-2400.917-144.408a9.2,9.2,0,0,0-9.192,9.192,10.609,10.609,0,0,0,.78,3.539,14.817,14.817,0,0,0,1.062,1.987l6.3,9.55a1.265,1.265,0,0,0,1.047.616,1.267,1.267,0,0,0,1.048-.616l6.3-9.55a14.734,14.734,0,0,0,1.062-1.987,10.6,10.6,0,0,0,.779-3.539A9.2,9.2,0,0,0-2400.917-144.408Zm7.416,12.311a13.666,13.666,0,0,1-.968,1.811l-6.3,9.55c-.124.189-.164.189-.288,0l-6.3-9.55a13.653,13.653,0,0,1-.969-1.811,9.641,9.641,0,0,1-.695-3.119,8.119,8.119,0,0,1,8.11-8.11,8.12,8.12,0,0,1,8.111,8.11A9.638,9.638,0,0,1-2393.5-132.1Z" transform="translate(2410.109 144.408)" fill="#38afe7" stroke="#38afe7" stroke-miterlimit="10" stroke-width="1.313"/>
      <path id="Контур_15" data-name="Контур 15" d="M-2398.463-137.628a4.873,4.873,0,0,0-4.867,4.866,4.873,4.873,0,0,0,4.867,4.867,4.872,4.872,0,0,0,4.867-4.867A4.872,4.872,0,0,0-2398.463-137.628Zm0,8.651a3.79,3.79,0,0,1-3.785-3.785,3.79,3.79,0,0,1,3.785-3.785,3.79,3.79,0,0,1,3.785,3.785A3.79,3.79,0,0,1-2398.463-128.977Z" transform="translate(2407.655 141.954)" fill="#38afe7" stroke="#38afe7" stroke-miterlimit="10" stroke-width="1.313"/>
    </g>
  </g>
</svg>
