<svg xmlns="http://www.w3.org/2000/svg" xmlns:xlink="http://www.w3.org/1999/xlink" width="54.159" height="66.025" viewBox="0 0 54.159 66.025">
  <defs>
    <linearGradient id="linear-gradient" y1="0.5" x2="1" y2="0.5" gradientUnits="objectBoundingBox">
      <stop offset="0" stop-color="#00b0ed"/>
      <stop offset="0.386" stop-color="#00ace9"/>
      <stop offset="0.713" stop-color="#00a2df"/>
      <stop offset="1" stop-color="#0092d0"/>
    </linearGradient>
    <linearGradient id="linear-gradient-2" x1="0" y1="0.5" x2="1" y2="0.5" xlink:href="#linear-gradient"/>
  </defs>
  <g id="Сгруппировать_54" data-name="Сгруппировать 54" transform="translate(2557.443 -1460.197)">
    <path id="Контур_37" data-name="Контур 37" d="M-2503.288,1475.874a3.909,3.909,0,0,0-1.978-3.4l-.048-.026-23.188-11.755a3.758,3.758,0,0,0-3.69-.018l-23.073,11.691a3.921,3.921,0,0,0-2.178,3.513v19.117a29.613,29.613,0,0,0,7.4,19.3,37.837,37.837,0,0,0,18.615,11.772,3.776,3.776,0,0,0,1.065.154,3.778,3.778,0,0,0,1-.135,37.832,37.832,0,0,0,18.684-11.791,29.614,29.614,0,0,0,7.4-19.3Zm-51.576,3.194,8.813,2.8a1.288,1.288,0,0,0,.758.007l9.482-2.821a2.89,2.89,0,0,1,2.6.1l.235.136-3.311,1.912a3.906,3.906,0,0,0-1.428,5.33,3.953,3.953,0,0,0,5.256,1.468c.952-.471,2.321-1.087,3.383-1.5.9.54,2.856,1.728,4.9,2.968,4.6,2.787,10.319,6.255,11.206,6.767a1.285,1.285,0,0,1,.6.788,1.29,1.29,0,0,1-.126.983,1.3,1.3,0,0,1-1.771.475l-2.247-1.3h0l-8.343-4.816a1.289,1.289,0,0,0-1.761.471,1.29,1.29,0,0,0,.472,1.762l8.342,4.816h0a1.3,1.3,0,0,1,.472,1.77,1.285,1.285,0,0,1-.787.6,1.289,1.289,0,0,1-.983-.126l-1.478-.854h0l-7.324-4.229a1.289,1.289,0,0,0-1.761.472,1.288,1.288,0,0,0,.472,1.761l7.323,4.228h0a1.3,1.3,0,0,1,.474,1.77,1.281,1.281,0,0,1-.787.6,1.29,1.29,0,0,1-.983-.126l-2.52-1.455-4.564-2.635a3.856,3.856,0,0,0-1.366-1.331,3.839,3.839,0,0,0-2.024-.517,3.875,3.875,0,0,0-1.919-3,3.845,3.845,0,0,0-2.2-.508,3.864,3.864,0,0,0-.084-.4,3.85,3.85,0,0,0-1.8-2.354,3.847,3.847,0,0,0-2.94-.384,3.853,3.853,0,0,0-1.734.995,3.843,3.843,0,0,0-1.1-.951,3.88,3.88,0,0,0-5.294,1.418l-.51.883-3.64-2.1Zm8.629,17.693-1.465,2.539a1.3,1.3,0,0,1-1.77.473,1.286,1.286,0,0,1-.6-.788,1.292,1.292,0,0,1,.126-.983l1.464-2.535a1.285,1.285,0,0,1,.788-.6,1.286,1.286,0,0,1,.983.126A1.3,1.3,0,0,1-2546.235,1496.761Zm.219,4.78.548-.95h0l1.467-2.541,1.3-2.243a1.282,1.282,0,0,1,.787-.6,1.281,1.281,0,0,1,.983.126,1.3,1.3,0,0,1,.475,1.771l-.388.672h0l-2.535,4.391v0l-.387.669a1.3,1.3,0,0,1-1.771.475,1.3,1.3,0,0,1-.474-1.771Zm4.866,1.915h0l2.534-4.39h0a1.284,1.284,0,0,1,.787-.6,1.286,1.286,0,0,1,.983.127,1.3,1.3,0,0,1,.475,1.771l-.536.927-1.463,2.535h0l-.535.928a1.3,1.3,0,0,1-1.771.474,1.3,1.3,0,0,1-.475-1.77Zm5.014,1.658h0l1.464-2.535a1.281,1.281,0,0,1,.787-.6,1.29,1.29,0,0,1,.983.126,1.3,1.3,0,0,1,.475,1.771l-1.464,2.535a1.3,1.3,0,0,1-1.771.475,1.293,1.293,0,0,1-.6-.788,1.288,1.288,0,0,1,.126-.982Zm5.943.05a3.874,3.874,0,0,0,.336-.761l2.885,1.666h0a1.3,1.3,0,0,1,.472,1.77,1.3,1.3,0,0,1-1.771.474l-2.808-1.621Zm-13.314.642a3.862,3.862,0,0,0,1.542,1.653,3.873,3.873,0,0,0,3.555.165,3.827,3.827,0,0,0,1.46,1.493,3.83,3.83,0,0,0,1.926.519,3.957,3.957,0,0,0,1.014-.134,3.888,3.888,0,0,0,1.412-.71l3.041,1.756a3.855,3.855,0,0,0,1.931.518,3.88,3.88,0,0,0,3.363-1.936,3.885,3.885,0,0,0,.467-1.3,3.85,3.85,0,0,0,2.285.082,3.845,3.845,0,0,0,2.354-1.8,3.847,3.847,0,0,0,.511-1.692,3.877,3.877,0,0,0,1.2-.13,3.845,3.845,0,0,0,2.354-1.8,3.866,3.866,0,0,0,.478-1.374,3.883,3.883,0,0,0,2.727-.277,23.516,23.516,0,0,1-4.691,8.453,30.054,30.054,0,0,1-13.786,9.034,30.074,30.074,0,0,1-13.788-9.034,25.367,25.367,0,0,1-2.632-3.712,3.869,3.869,0,0,0,3.276.234Zm32.821-10.985a3.882,3.882,0,0,0-.989-.813c-.863-.5-6.813-4.106-11.158-6.739l-3.84-2.327-1.168-.706c-.609-.367-.736-.443-1.1-.443a1.277,1.277,0,0,0-.424.072,43.707,43.707,0,0,0-4.233,1.826,1.412,1.412,0,0,1-1.881-.445,1.325,1.325,0,0,1,.485-1.807l7.415-4.281a2.887,2.887,0,0,1,2.6-.1l9.482,2.821a1.294,1.294,0,0,0,.735,0l8.891-2.639,0,13.776Zm-43.445-20.142.021-.01,23.105-11.707.049-.026a1.2,1.2,0,0,1,.592-.157,1.216,1.216,0,0,1,.607.164c.02.012.04.023.061.033l23.187,11.755a1.325,1.325,0,0,1,.642,1.145v.672l-2.587.768a1.286,1.286,0,0,0-.7-1.033l-20.63-10.459a1.288,1.288,0,0,0-1.166,0l-5.138,2.6a1.289,1.289,0,0,0-.568,1.733,1.29,1.29,0,0,0,1.733.567l4.556-2.308,19.158,9.712-3.918,1.163-9.114-2.711a5.438,5.438,0,0,0-4.629.341l-1.525.88-1.525-.88a5.439,5.439,0,0,0-4.628-.341l-9.1,2.708-3.793-1.207,4.166-2.111a1.289,1.289,0,0,0,.567-1.733,1.289,1.289,0,0,0-1.733-.567l-5.137,2.6a1.288,1.288,0,0,0-.682.912l-2.6-.828v-.486a1.329,1.329,0,0,1,.733-1.2Zm41.484,37.946a35.226,35.226,0,0,1-17.4,10.975,1.181,1.181,0,0,1-.659-.007l-.026-.008a35.228,35.228,0,0,1-17.348-10.96,27.212,27.212,0,0,1-6.764-16.677l2.382,1.375a3.847,3.847,0,0,0-.1,2.329,3.853,3.853,0,0,0,1.27,1.984,26.01,26.01,0,0,0,5.177,9.319,32.684,32.684,0,0,0,15.381,9.946,1.267,1.267,0,0,0,.371.055,1.263,1.263,0,0,0,.37-.055,32.69,32.69,0,0,0,15.381-9.946,24.914,24.914,0,0,0,6.1-14.194l2.635-.988a27.185,27.185,0,0,1-6.77,16.852Z" fill="url(#linear-gradient)"/>
    <path id="Контур_38" data-name="Контур 38" d="M-2540.68,1473.49a1.289,1.289,0,0,0,1.289-1.289,1.29,1.29,0,0,0-1.289-1.29h0a1.29,1.29,0,0,0-1.289,1.29A1.29,1.29,0,0,0-2540.68,1473.49Z" fill="url(#linear-gradient-2)"/>
  </g>
</svg>
