<svg xmlns="http://www.w3.org/2000/svg" xmlns:xlink="http://www.w3.org/1999/xlink" width="125.066" height="125.064" viewBox="0 0 125.066 125.064">
  <defs>
    <linearGradient id="linear-gradient" y1="0.5" x2="1" y2="0.5" gradientUnits="objectBoundingBox">
      <stop offset="0" stop-color="#00b0ed"/>
      <stop offset="0.386" stop-color="#00ace9"/>
      <stop offset="0.713" stop-color="#00a2df"/>
      <stop offset="1" stop-color="#0092d0"/>
    </linearGradient>
    <linearGradient id="linear-gradient-4" x1="0" y1="0.5" x2="1" y2="0.5" xlink:href="#linear-gradient"/>
  </defs>
  <g id="Сгруппировать_52" data-name="Сгруппировать 52" transform="translate(2521.25 -3348.74)">
    <path id="Контур_33" data-name="Контур 33" d="M-2468.217,3417.317-2480,3429.095a2.444,2.444,0,0,0,0,3.454,2.438,2.438,0,0,0,1.728.716,2.436,2.436,0,0,0,1.727-.716l11.777-11.777a2.444,2.444,0,0,0,0-3.455A2.443,2.443,0,0,0-2468.217,3417.317Z" fill="url(#linear-gradient)"/>
    <path id="Контур_34" data-name="Контур 34" d="M-2440.906,3390.006l-11.766,11.766a2.444,2.444,0,0,0,0,3.455,2.434,2.434,0,0,0,1.727.715,2.434,2.434,0,0,0,1.727-.715l11.767-11.767a2.444,2.444,0,0,0,0-3.454A2.443,2.443,0,0,0-2440.906,3390.006Z" fill="url(#linear-gradient)"/>
    <path id="Контур_35" data-name="Контур 35" d="M-2407.153,3432.779a21.821,21.821,0,0,0-15.3-2.52l-18.988-18.988,19-19a21.823,21.823,0,0,0,4.256.419,22.032,22.032,0,0,0,19.055-11,21.969,21.969,0,0,0,.714-20.644c-1.066-2.185-2.444-3.323-4.095-3.38-1.625-.055-3.026.924-4.175,2.914l-3.787,6.558c-.645,1.117-.976,1.118-1.524,1.118h-2.809c-1.752,0-2.053-.174-2.929-1.692l-1.4-2.432c-.284-.491-.44-.762.205-1.879l3.786-6.558c1.149-1.99,1.3-3.7.437-5.073-.876-1.4-2.549-2.026-4.975-1.856a21.97,21.97,0,0,0-17.522,10.94,21.823,21.823,0,0,0-2.519,15.3L-2458.717,3394l-19-19a22.018,22.018,0,0,0-10.577-23.311,21.977,21.977,0,0,0-20.646-.713c-2.185,1.065-3.322,2.443-3.38,4.1-.056,1.621.924,3.025,2.915,4.175l6.558,3.786c1.117.645,1.117.957,1.117,1.524v2.809c0,1.752-.174,2.053-1.691,2.929l-2.433,1.405c-.491.283-.762.44-1.879-.205l-6.557-3.786c-1.991-1.15-3.7-1.3-5.074-.437-1.4.875-2.026,2.549-1.856,4.974a21.97,21.97,0,0,0,10.94,17.522,21.814,21.814,0,0,0,15.3,2.519l18.988,18.989-19,19a22.021,22.021,0,0,0-23.311,10.578,21.968,21.968,0,0,0-.713,20.644c1.065,2.186,2.443,3.323,4.1,3.381,1.622.058,3.025-.924,4.175-2.915l3.786-6.558c.645-1.117.958-1.117,1.525-1.117h2.808c1.752,0,2.053.174,2.93,1.691l1.4,2.432c.283.492.44.763-.205,1.879l-3.786,6.558c-1.15,1.991-1.3,3.7-.437,5.073.782,1.252,2.2,1.884,4.222,1.884q.363,0,.752-.027a21.972,21.972,0,0,0,17.522-10.94,21.82,21.82,0,0,0,2.519-15.3l18.988-18.988,19,19a22.019,22.019,0,0,0,10.578,23.311,21.962,21.962,0,0,0,10.987,2.947,22.026,22.026,0,0,0,9.657-2.233c2.185-1.066,3.323-2.444,3.38-4.095.057-1.621-.923-3.026-2.914-4.176l-6.558-3.786c-1.117-.645-1.117-.957-1.117-1.524v-2.809c0-1.752.174-2.053,1.691-2.929l2.432-1.4c.491-.284.762-.44,1.879.2l6.558,3.787c1.99,1.149,3.7,1.3,5.073.436,1.4-.875,2.026-2.549,1.857-4.974a21.969,21.969,0,0,0-10.941-17.522Zm-85.331-44.911a2.445,2.445,0,0,0-2.362-.631,16.986,16.986,0,0,1-12.992-1.7,17.092,17.092,0,0,1-8.489-13.363l6.15,3.551a6.3,6.3,0,0,0,6.765.205l2.432-1.405c3.013-1.74,4.134-3.68,4.134-7.16v-2.809a6.3,6.3,0,0,0-3.56-5.755l-6.15-3.551a17.092,17.092,0,0,1,15.816.67,17.119,17.119,0,0,1,7.975,19.217,2.444,2.444,0,0,0,.633,2.359l19.96,19.96-3.454,3.455-10.9-10.9a2.442,2.442,0,0,0-3.454,0,2.443,2.443,0,0,0,0,3.455l10.9,10.9-3.455,3.455Zm10.363,57.17a2.444,2.444,0,0,0-.631,2.362,16.99,16.99,0,0,1-1.7,12.993,17.092,17.092,0,0,1-13.363,8.488l3.551-6.15a6.3,6.3,0,0,0,.205-6.764l-1.4-2.433c-1.74-3.013-3.681-4.133-7.16-4.133h-2.809a6.3,6.3,0,0,0-5.756,3.559l-3.551,6.15a17.093,17.093,0,0,1,.67-15.816,17.117,17.117,0,0,1,19.217-7.975,2.444,2.444,0,0,0,2.359-.632l57.182-57.182a2.44,2.44,0,0,0,.631-2.362,16.986,16.986,0,0,1,1.7-12.993,17.09,17.09,0,0,1,13.362-8.488l-3.551,6.15a6.3,6.3,0,0,0-.205,6.764l1.405,2.433c1.74,3.013,3.68,4.133,7.16,4.133H-2412a6.3,6.3,0,0,0,5.755-3.559l3.551-6.151a17.091,17.091,0,0,1-.67,15.817,17.12,17.12,0,0,1-19.217,7.975,2.441,2.441,0,0,0-2.359.632Zm74.863,1.783a6.3,6.3,0,0,0-6.764-.205l-2.433,1.405c-3.013,1.739-4.133,3.68-4.133,7.159v2.809a6.3,6.3,0,0,0,3.559,5.756l6.151,3.551a17.094,17.094,0,0,1-15.817-.67,17.118,17.118,0,0,1-7.975-19.217,2.442,2.442,0,0,0-.632-2.359l-19.961-19.961,3.455-3.454,10.914,10.914a2.435,2.435,0,0,0,1.727.715,2.435,2.435,0,0,0,1.727-.715,2.444,2.444,0,0,0,0-3.455l-10.914-10.914,3.455-3.454,19.948,19.949a2.444,2.444,0,0,0,2.362.631,16.985,16.985,0,0,1,12.993,1.7,17.094,17.094,0,0,1,8.488,13.363Z" fill="url(#linear-gradient)"/>
    <path id="Контур_36" data-name="Контур 36" d="M-2458.717,3408.829h0a2.442,2.442,0,0,0-2.442,2.443,2.443,2.443,0,0,0,2.444,2.442,2.442,2.442,0,0,0,2.442-2.442,2.442,2.442,0,0,0-2.442-2.443Z" fill="url(#linear-gradient-4)"/>
  </g>
</svg>
